<?xml version="1.0" standalone="no"?>
<!DOCTYPE svg PUBLIC "-//W3C//DTD SVG 20010904//EN"
 "http://www.w3.org/TR/2001/REC-SVG-20010904/DTD/svg10.dtd">
<svg version="1.0" xmlns="http://www.w3.org/2000/svg"
 width="1024.000000pt" height="1024.000000pt" viewBox="0 0 1024.000000 1024.000000"
 preserveAspectRatio="xMidYMid meet">

<g transform="translate(0.000000,1024.000000) scale(0.100000,-0.100000)"
fill="#000000" stroke="none">
<path d="M4456 7868 c-9 -24 -68 -225 -132 -448 -64 -223 -128 -445 -142 -493
-17 -59 -22 -91 -15 -98 14 -14 186 -78 195 -72 4 2 85 119 180 260 94 141
173 253 175 247 1 -5 -31 -142 -71 -304 -41 -162 -70 -298 -67 -303 8 -8 168
-68 190 -70 9 -1 76 97 170 250 86 138 199 320 251 404 114 183 170 280 170
295 0 11 -167 81 -174 73 -1 -2 -51 -87 -111 -189 -179 -306 -209 -354 -212
-343 -4 10 8 53 104 413 24 91 45 172 46 180 1 10 -30 27 -95 54 -54 22 -99
38 -101 35 -2 -2 -77 -116 -167 -254 -89 -137 -169 -257 -177 -265 -13 -13
-14 -11 -8 19 4 19 45 151 91 295 46 144 84 266 84 272 0 9 -68 44 -156 81 -7
2 -19 -15 -28 -39z"/>
<path d="M5413 7448 c-17 -29 -97 -195 -178 -368 -81 -173 -176 -372 -211
-442 -35 -70 -64 -130 -64 -133 0 -14 411 -175 445 -175 14 0 26 10 34 28 22
47 53 133 49 136 -1 2 -60 27 -130 57 -71 29 -128 58 -128 63 0 5 20 51 44
102 29 60 50 94 60 94 9 0 59 -18 112 -41 72 -31 98 -38 109 -29 12 10 65 140
65 159 0 5 -40 25 -88 45 -136 56 -131 43 -67 174 64 133 60 132 202 71 52
-22 102 -38 110 -35 14 6 67 111 78 157 5 23 -3 28 -195 104 -111 44 -205 81
-209 83 -5 2 -22 -21 -38 -50z"/>
<path d="M5721 6793 c-185 -398 -229 -499 -219 -509 22 -20 310 -126 374 -137
57 -10 63 -9 115 19 68 37 126 118 164 234 27 80 31 154 11 201 -5 13 0 18 25
23 65 13 135 122 182 281 12 43 12 58 1 102 -18 71 -59 130 -107 155 -29 14
-305 128 -313 128 0 0 -105 -224 -233 -497z m392 201 c45 -23 67 -44 67 -65 0
-33 -48 -127 -70 -139 -31 -17 -102 -14 -139 4 l-30 16 44 96 c25 53 45 98 45
100 0 10 55 2 83 -12z m-187 -400 c19 -9 44 -29 55 -45 20 -29 20 -30 3 -82
-23 -68 -71 -117 -115 -117 -39 0 -119 34 -119 50 0 6 23 55 50 110 55 109 62
114 126 84z"/>
<path d="M6587 6970 c-73 -23 -87 -35 -131 -120 -52 -99 -50 -114 26 -150 34
-17 65 -30 68 -30 4 0 15 18 25 41 21 47 40 59 89 59 43 0 96 -41 96 -76 0
-42 -45 -128 -74 -142 -32 -14 -98 -16 -144 -2 l-34 9 -29 -64 c-42 -93 -40
-108 23 -142 31 -16 60 -42 71 -61 19 -32 19 -34 2 -80 -34 -89 -93 -127 -158
-103 -57 22 -70 62 -43 139 l15 41 -81 31 c-65 25 -83 29 -90 18 -32 -48 -51
-100 -56 -153 -6 -85 31 -164 96 -206 64 -40 147 -70 214 -76 107 -10 198 61
260 205 27 63 33 90 32 147 0 39 -3 79 -7 90 -6 16 1 25 34 45 59 36 94 85
133 186 46 120 51 151 32 213 -28 95 -74 134 -215 182 -65 23 -79 23 -154 -1z"/>
<path d="M3425 6310 c-121 -60 -357 -173 -525 -251 -426 -197 -717 -342 -768
-379 -23 -18 -53 -51 -65 -74 -21 -40 -22 -53 -25 -366 -3 -369 -2 -380 71
-447 23 -21 76 -54 118 -72 l76 -33 6 -676 c4 -371 7 -802 7 -957 0 -342 4
-361 88 -444 61 -60 93 -76 1142 -569 618 -290 1092 -513 1225 -577 377 -180
417 -193 533 -175 35 6 87 22 116 37 46 23 711 381 1711 920 808 437 746 399
793 488 24 47 26 62 33 245 4 107 8 545 8 972 l1 777 107 58 c68 38 118 73
137 97 l31 38 3 354 c2 241 -1 367 -8 396 -9 31 -28 59 -68 98 -52 50 -89 70
-407 222 -417 198 -670 317 -685 320 -12 3 -41 -57 -280 -582 -217 -476 -228
-499 -250 -531 -15 -20 -83 -60 -238 -138 -334 -167 -446 -214 -496 -209 -22
3 -276 106 -566 231 -289 124 -791 340 -1116 479 -326 140 -604 262 -619 272
-25 17 -27 22 -22 65 3 25 41 153 84 284 43 130 76 237 73 236 -3 0 -104 -50
-225 -109z"/>
</g>
</svg>
